<svg xmlns="http://www.w3.org/2000/svg"><symbol id="dome" viewBox="0 0 256 256"><path d="M80 156.9h13v12.81H80zm17.1 0h20.3v12.81H97.1zm24.4 0h13v12.81h-13zm17.1 0h20.3v12.81h-20.3zM128 72.1c-23.8 0-43.7 14.4-44.7 40.6h89.4c-1-26.2-20.9-40.6-44.7-40.6zm-60.2 80.7h120.4v-36H67.8zM127 139h49.6a2 2 0 1 1 0 4H127a2 2 0 1 1 0-4z"/><path d="M128 4.2L20.8 66.1v123.8L128 251.8l107.2-61.9V66.1zm64.2 150.6a1.9 1.9 0 0 1-2 2.1H180v12.8h10.2a2 2 0 0 1 0 4H65.8a2 2 0 1 1 0-4h10.1v-12.8H65.8a2 2 0 0 1-2.1-2.1v-40a2.1 2.1 0 0 1 2.1-2.1h13.4C80.2 83.9 101.8 68 128 68s47.8 15.9 48.8 44.7h13.4a2 2 0 0 1 2 2.1z"/><path d="M163 156.9h13v12.81h-13z"/></symbol><symbol id="stilts" viewBox="0 0 256 256"><path d="M71.3 147.1H126v22.57H71.3zm54.7-19.3V86.7l-29.3 41.1H126zm4-45.3v45.3h56.1A60.3 60.3 0 0 0 130 82.5zm0 64.6h9.1v22.57H130zm-6.1-64.4c-26 1.6-47.7 20.5-54.1 45.1h21.8z"/><path d="M128 4.2L20.8 66.1v123.8L128 251.8l107.2-61.9V66.1zm87.6 142.9h-26.8v24.6a1.9 1.9 0 0 1-2 2H69.2a1.9 1.9 0 0 1-2-2v-24.6H40.4a2.2 2.2 0 0 1-2.1-2 2.3 2.3 0 0 1 2.1-2.1h15.2v-13.2a1.9 1.9 0 0 1 2-2h8a64.4 64.4 0 0 1 62.2-49.4c.2-.2.4-.2.8 0a64.1 64.1 0 0 1 61.8 49.4h7.9a1.9 1.9 0 0 1 2.1 2V143h15.2a2.3 2.3 0 0 1 2.1 2.1 2.2 2.2 0 0 1-2.1 2z"/><path d="M59.7 131.9h136.6v11.18H59.7zm83.5 15.2h41.5v22.57h-41.5z"/></symbol><symbol id="bubble" viewBox="0 0 256 256"><path d="M98 149.3H84.5l-18.1 21.4 2.9 4.1 34.7-18.3-6-7.2zm-25-14.7h112.2v10.67H73zm98.1-4.1a51.3 51.3 0 0 0 2.4-15.6 44.4 44.4 0 1 0-88.8 0c0 5.3.4 10.8 2.5 15.6zm-83.7 39.6h27.9l-8.4-10.3-19.5 10.3zm70.6-20.8l-6.2 7.2 34.9 18.3 2.8-3.9-18-21.6H158z"/><path d="M128 3.1L19.8 65.5v125L128 252.9l108.2-62.4v-125zm65.7 168.8l-4.8 6.8a2.1 2.1 0 0 1-2.6.6l-9.9-5.1h-97l-9.9 5.1a2.2 2.2 0 0 1-2.6-.6l-4.8-6.8a2.3 2.3 0 0 1 .2-2.5l17.1-20.1H71a1.9 1.9 0 0 1-2.1-2v-14.8a1.9 1.9 0 0 1 2.1-2h11.9a55.6 55.6 0 0 1-2.3-15.6 48.8 48.8 0 0 1 48.6-48.5c26.5 0 48.4 22 48.4 48.5a52.1 52.1 0 0 1-2.2 15.6h11.9a1.9 1.9 0 0 1 2 2v14.8a1.9 1.9 0 0 1-2 2h-10.5l16.9 20.1a2.3 2.3 0 0 1 0 2.5z"/><path d="M140.7 170.1h27.9l-19.5-10.3-8.4 10.3zm-37.3-20.8l17.2 20.8h14.8l17.2-20.8h-49.2z"/></symbol></svg>